# xmcd
#
# Track frame offsets:
#	150
#	14907
#	38435
#	53689
#	68489
#	88278
#	112953
#	131404
#	148655
#	162942
#	189060
#	202623
# Disc length: 3081 seconds
# Revision: 1
# Processed by: cddbd v1.5.2PL0 Copyright (c) Steve Scherf et al.
#
# Submitted via: libkcddb 0.31
#
DISCID=940c070c
DTITLE=Blue Stuff - Waiting For The Blues
DYEAR=2002
DGENRE=Blues
TTITLE0=Stuck In The Middle
TTITLE1=Got A Broken Heart
TTITLE2=Don't Touch Me
TTITLE3=I Need To Be Loved
TTITLE4=Kiss Your Body
TTITLE5=Ain't Got Time
TTITLE6=Pride And Joy
TTITLE7=Rendevouz With The Blues
TTITLE8=Green Onions - Help Me
TTITLE9=Whiskey Drinkin' Woman
TTITLE10=Little Wing
TTITLE11=White Room
EXTD=
EXTT0=
EXTT1=
EXTT2=
EXTT3=
EXTT4=
EXTT5=
EXTT6=
EXTT7=
EXTT8=
EXTT9=
EXTT10=
EXTT11=
PLAYORDER=
